<svg width="123" height="31" viewBox="0 0 123 31" fill="none" xmlns="http://www.w3.org/2000/svg">
<g id="dewalt-1 logo" clip-path="url(#clip0_182_6182)">
<path id="Vector" fill-rule="evenodd" clip-rule="evenodd" d="M0.540771 0.5H122.459V3.35193H0.540771V0.5ZM0.540771 27.6481H122.459V30.5H0.540771V27.6481ZM0.875901 4.24391H12.9607C18.261 4.24391 22.619 8.48171 22.8266 13.7394V16.9417C22.8266 22.3904 18.3885 26.8512 12.9448 26.8512H0.875901V4.24391ZM9.17735 10.8557H10.3269C11.6358 10.8557 13.903 11.4291 13.903 14.7908V15.9221C13.8552 19.1881 11.6202 19.7459 10.3269 19.7459H9.17735V10.856V10.8557ZM35.9334 15.2529V20.3512H30.7769V21.8169H36.7315V26.8675H24.0718V8.73693H36.7315V13.7875H30.7769V15.2532H35.9334V15.2529ZM36.7315 4.24391H45.48L47.5712 13.819L49.6626 4.24391H57.3732L59.4647 13.819L61.5558 4.24391H70.3043L64.1741 26.8671H55.9527L53.5261 17.1008V17.0213V17.069L53.5101 17.0213V17.1008L51.0835 26.8671H42.8621L36.7318 4.24391H36.7315ZM66.1536 26.8671H75.0775L75.8756 23.3145L78.1425 23.3304L80.4093 23.3145L81.2074 26.8671H90.1313L82.724 4.24391H73.5606L66.1533 26.8671H66.1536ZM78.1428 13.3092L77.0574 17.9613H79.2285L78.1431 13.3092H78.1428ZM90.6747 4.24391H99.5029V19.7297H106.399V26.8671H90.6747V4.24391ZM103.334 4.24391H122.108L122.124 4.29164V10.553H117.143V26.8675H108.283V10.553H103.303V4.30788L103.334 4.24424V4.24391ZM122.412 25.0033C122.412 25.5131 122.22 25.9592 121.869 26.3255C121.502 26.6759 121.055 26.8671 120.544 26.8671C120.033 26.8671 119.586 26.6759 119.219 26.3255C118.852 25.9592 118.677 25.5131 118.677 25.0033C118.677 24.4935 118.852 24.0474 119.219 23.6811C119.586 23.3148 120.033 23.1395 120.544 23.1395C121.055 23.1395 121.502 23.3148 121.869 23.6811C122.22 24.0474 122.412 24.4935 122.412 25.0033ZM122.204 25.0033C122.204 24.5412 122.044 24.1591 121.709 23.8243C121.39 23.5057 121.007 23.3463 120.544 23.3463C120.081 23.3463 119.698 23.5057 119.362 23.8243C119.043 24.1587 118.883 24.5412 118.883 25.0033C118.883 25.4654 119.043 25.8475 119.362 26.1664C119.698 26.5009 120.081 26.6603 120.544 26.6603C121.007 26.6603 121.39 26.5009 121.709 26.1664C122.044 25.8479 122.204 25.4654 122.204 25.0033ZM119.857 23.936H120.624C120.911 23.936 121.118 23.9837 121.246 24.0954C121.358 24.1909 121.422 24.3185 121.422 24.4779C121.422 24.6374 121.358 24.7806 121.23 24.8763C121.135 24.9559 121.007 25.0199 120.815 25.0358C120.911 25.0835 120.959 25.1153 120.991 25.1471C121.023 25.179 121.087 25.2426 121.151 25.3384C121.214 25.4339 121.279 25.5137 121.31 25.5774L121.518 25.9437H121.199L120.991 25.6092C120.847 25.3543 120.736 25.1949 120.656 25.1471C120.576 25.0994 120.449 25.0676 120.273 25.0676H120.113V25.944H119.858V23.9366L119.857 23.936ZM120.113 24.1431V24.8442H120.368C120.64 24.8442 120.831 24.8283 120.927 24.7965C120.991 24.7806 121.038 24.7487 121.087 24.6851C121.134 24.6214 121.15 24.5575 121.15 24.4938C121.15 24.3984 121.118 24.3185 121.039 24.2548C120.975 24.1753 120.783 24.1435 120.496 24.1435H120.113V24.1431Z" fill="#B5A99A" fill-opacity="0.7"/>
</g>
<defs>
<clipPath id="clip0_182_6182">
<rect width="122" height="30" fill="white" transform="translate(0.5 0.5)"/>
</clipPath>
</defs>
</svg>
