<svg width="171" height="23" viewBox="0 0 171 23" fill="none" xmlns="http://www.w3.org/2000/svg">
<path id="Union" fill-rule="evenodd" clip-rule="evenodd" d="M116.913 22.1887C120.462 18.3578 136.286 2.18268 170.5 0.00708008C164.213 0.621923 139.622 3.97991 122.515 22.9454H116.186L116.913 22.1887ZM55.4133 7.85815L53.0183 11.1216L57.0812 17.3173H48.6133L46.5177 19.7766H58.7491L60.8447 22.9927H65.5491L55.4133 7.85815ZM4.52013 14.1012H15.8962C18.1629 14.2431 19.5742 15.3309 19.5742 17.3646V19.6821C19.5742 21.905 18.3767 22.9455 15.939 22.9455H4.34906C2.12516 22.9455 0.884906 21.9996 0.5 20.2023H15.9818V16.8916H4.47736C2.33899 16.8916 0.884906 15.8038 0.884906 13.912V11.5945C0.884906 9.41893 2.29623 8.42572 4.73396 8.42572H15.383C17.5641 8.42572 18.8044 9.65541 19.1893 10.9797H4.52013V14.1012ZM25.0913 8.47314H39.119C42.0271 8.47314 43.8234 9.79742 43.8661 12.1622V13.7703C43.8661 16.3242 42.2837 17.412 39.4183 17.412H29.0686V22.9929H25.0913V8.47314ZM38.6913 14.7162C40.2309 14.7162 40.402 14.1486 40.402 13.1081H40.4447V12.4933C40.4447 11.5001 40.2309 10.9325 38.5202 10.9325H29.1114L29.0686 14.7162H38.6913ZM88.0446 10.9797H73.1616V20.1551H88.0446C87.617 22.0942 86.7189 22.8982 84.1528 22.8982H72.905C70.9805 22.8982 69.1415 22.0469 69.1415 19.7294V11.5946C69.1415 9.2771 70.9805 8.42578 72.905 8.42578H84.0245C86.1629 8.42578 87.6597 9.2771 88.0446 10.9797ZM97.4962 20.2496V15.8039H105.494V13.3445H93.476V22.9928H111.224V20.2496H97.4962ZM93.9037 8.47314H111.823V11.0271H93.9037V8.47314ZM122.857 8.47314H116.613L123.969 14.4324C125.038 13.6284 126.279 12.777 127.391 12.0676L122.857 8.47314ZM129.102 18.1677L129.101 18.1684L128.759 18.4525L134.319 22.9456H140.606L131.924 15.8986C130.973 16.6134 130.023 17.4031 129.102 18.1677Z" fill="#B5A99A" fill-opacity="0.7"/>
</svg>
