<svg width="171" height="39" viewBox="0 0 171 39" fill="none" xmlns="http://www.w3.org/2000/svg">
<path id="Union" fill-rule="evenodd" clip-rule="evenodd" d="M14.0647 29.5142C11.276 29.5142 8.71292 28.5935 6.68044 27.0495C9.04369 21.906 13.859 15.0055 20.4251 8.26619C23.7772 10.3049 26.0037 13.9045 26.0037 18.0066C26.0037 19.758 25.5946 21.4191 24.8688 22.9056C22.786 21.9759 20.8436 20.8128 19.1956 19.3444L22.7931 25.856C20.6133 28.1077 17.5114 29.5142 14.0647 29.5142ZM2.12926 18.0066C2.12926 11.6471 7.47169 6.49571 14.0647 6.49571C15.8319 6.49571 17.5067 6.86649 19.0191 7.52915C12.55 13.0423 7.54065 19.4503 4.57666 24.9883C3.04207 23.0487 2.12926 20.6336 2.12926 18.0066ZM26.3683 23.5232C27.1806 21.8474 27.6318 19.9766 27.6318 18.0066C27.6318 13.4593 25.2253 9.45403 21.5717 7.10992C23.7479 4.95063 26.103 2.81726 28.61 0.778564C25.6717 2.44536 22.9111 4.35333 20.3597 6.41457C18.4791 5.4634 16.3368 4.92246 14.0647 4.92246C6.57408 4.92246 0.5 10.7827 0.5 18.0066C0.5 21.267 1.73889 24.2535 3.78774 26.5412C1.1884 31.9609 0.733753 36.3132 3.02454 37.7851C5.47544 39.3617 10.8074 36.5037 14.0074 31.8493C14.0074 31.8493 9.05888 36.1543 6.34033 35.1671C4.66782 34.5563 4.66198 32.0893 6.04112 28.5518C8.28983 30.1453 11.0621 31.0863 14.0647 31.0863C17.7826 31.0863 21.1474 29.646 23.5983 27.3132L24.0799 28.1877C29.9927 27.7246 47.6469 27.2738 47.6469 27.2738C47.6469 26.9936 46.2721 26.8967 44.0788 26.7421C39.8765 26.4459 32.6693 25.9379 26.3683 23.5232ZM107.307 16.8038L109.517 13.9728L101.818 13.9706L103.715 11.5453H111.414L113.63 8.71547H98.2568L87.6818 22.2471H103.057L105.265 19.4139H97.5684L99.6032 16.8038H107.307ZM107.413 22.2473L117.983 8.71572H125.655L115.082 22.2473H107.413ZM143.539 8.71572L138.181 15.5756L136.533 8.71572H130.538L119.966 22.2473H125.039L130.353 15.4483L131.984 22.2473H138.042L148.617 8.71572H143.539ZM156.29 8.71346L168.621 8.71572C169.656 8.71572 170.5 9.52714 170.5 10.5279C170.5 10.9392 170.358 11.3145 170.124 11.6154L168.768 13.3521H161.105L161.926 12.3006C161.987 12.2195 162.026 12.1192 162.026 12.0155C162.026 11.7563 161.809 11.5456 161.537 11.5456H159.364C158.816 11.5456 158.33 11.7957 158.025 12.1891L152.968 18.6613C152.905 18.7368 152.868 18.8348 152.868 18.943C152.868 19.2022 153.085 19.4141 153.36 19.4141H155.53C156.077 19.4141 156.565 19.1617 156.87 18.7683L159.851 14.9547H169.295L167.068 17.8059H165.287L163.758 19.7612C162.578 21.2714 160.702 22.2473 158.59 22.2473H146.262C145.224 22.2473 144.384 21.4336 144.384 20.4329C144.384 20.0238 144.523 19.6463 144.762 19.3442L151.126 11.1996C152.309 9.6883 154.18 8.71346 156.29 8.71346ZM83.3951 12.3004L78.3367 18.7692C78.0317 19.1614 77.5478 19.4139 76.9973 19.4139H74.8246C74.5569 19.4139 74.3395 19.2031 74.3395 18.945C74.3395 18.8346 74.3769 18.7365 74.4354 18.661L79.4914 12.1911C79.8012 11.8023 80.2862 11.5453 80.832 11.5453H83.0059C83.2759 11.5453 83.4933 11.7572 83.4933 12.0153C83.4933 12.1189 83.4559 12.2192 83.3951 12.3004ZM91.9669 10.5276C91.9669 9.52802 91.1277 8.71547 90.0875 8.71547H77.7652C75.6532 8.71547 73.7797 9.68805 72.5969 11.1993L66.2318 19.344C65.9945 19.6483 65.8554 20.0235 65.8554 20.4338C65.8554 21.4334 66.6946 22.2471 67.7325 22.2471H80.0571C82.1714 22.2471 84.0473 21.2711 85.2278 19.761L91.5917 11.6174C91.8278 11.3154 91.9669 10.939 91.9669 10.5276ZM59.1586 13.3327L59.9674 12.3004C60.0281 12.2192 60.0632 12.1189 60.0632 12.0153C60.0632 11.7572 59.8435 11.5453 59.5758 11.5453H56.5674L54.6682 13.9706L57.818 13.9728C58.3685 13.9728 58.8512 13.7204 59.1586 13.3327ZM54.9054 18.7715L55.8545 17.5577C55.9164 17.48 55.9538 17.3819 55.9538 17.2737C55.9538 17.0134 55.7353 16.8038 55.4664 16.8038H52.4557L50.4185 19.4139H53.566C54.1165 19.4139 54.6004 19.1614 54.9054 18.7715ZM66.7018 13.4837C65.8007 14.6389 64.4858 15.483 62.9746 15.8109C63.3439 16.0769 63.587 16.5006 63.587 16.9818C63.587 17.3064 63.4795 17.6118 63.2867 17.8519L61.7953 19.761C60.6149 21.2711 58.7402 22.2471 56.6259 22.2471H48.0693H40.5343L51.1069 8.71547H58.7787H66.6597C67.6976 8.71547 68.5379 9.52802 68.5379 10.5276C68.5379 10.939 68.3965 11.3154 68.1592 11.6174L66.7018 13.4837Z" fill="#B5A99A" fill-opacity="0.7"/>
</svg>
