<svg width="122" height="63" viewBox="0 0 122 63" fill="none" xmlns="http://www.w3.org/2000/svg">
<g id="Frame 105">
<path id="Subtract" fill-rule="evenodd" clip-rule="evenodd" d="M61 0.5L121.5 31.4997L61 62.5L0.5 31.4997L61 0.5ZM19.4286 32.0103C19.4803 25.4375 23.1345 21.3748 27.9243 21.3748C32.7142 21.3748 36.3658 25.1127 36.3994 32.0577C36.4324 38.7682 32.7271 42.6023 27.9373 42.6023C23.1468 42.6023 19.3755 38.7208 19.4286 32.0103ZM79.9092 22.1855V41.6064H74.3639V22.1855H79.9092ZM53.0469 27.9697C52.86 30.7845 51.3815 31.9642 49.643 32.8808L53.9232 41.6246H47.8515L44.445 34.1943V41.6058H38.9146L38.9011 22.1848H47.7286C51.558 22.1848 53.1775 26.0013 53.0469 27.9697ZM56.1907 22.1855V41.6064H61.7393V33.5427L65.6191 41.6064H71.5964L66.9657 30.7565L71.081 22.1855H65.3928L61.7393 29.7347V22.1855H56.1907ZM83.6584 22.1855V41.6252H89.2988V33.8188L92.6295 41.6064H98.6398V22.1855H92.8611V30.292L89.5775 22.1855H83.6584Z" fill="#B5A99A" fill-opacity="0.7"/>
<path id="Vector" fill-rule="evenodd" clip-rule="evenodd" d="M29.6171 34.6647C29.6171 35.6867 29.0021 37.2899 27.9664 37.2899C26.9307 37.2899 26.1323 35.6867 26.1323 34.6647V29.594C26.1323 28.5714 26.839 27.1492 27.8747 27.1492C28.9104 27.1492 29.6171 28.5714 29.6171 29.594V34.6647ZM44.3351 30.8161V26.4856C47.3152 26.4698 47.3152 30.8161 44.3351 30.8161Z" fill="#B5A99A" fill-opacity="0.7"/>
</g>
</svg>
