<svg width="16" height="16" viewBox="0 0 16 16" fill="none" xmlns="http://www.w3.org/2000/svg">
<path d="M4.00008 11.3333C4.3537 11.3333 4.69284 11.4738 4.94289 11.7239C5.19294 11.9739 5.33341 12.313 5.33341 12.6667C5.33341 13.0203 5.19294 13.3594 4.94289 13.6095C4.69284 13.8595 4.3537 14 4.00008 14C3.64646 14 3.30732 13.8595 3.05727 13.6095C2.80722 13.3594 2.66675 13.0203 2.66675 12.6667C2.66675 12.313 2.80722 11.9739 3.05727 11.7239C3.30732 11.4738 3.64646 11.3333 4.00008 11.3333ZM4.00008 11.3333H11.3334M4.00008 11.3333V2H2.66675M11.3334 11.3333C11.687 11.3333 12.0262 11.4738 12.2762 11.7239C12.5263 11.9739 12.6667 12.313 12.6667 12.6667C12.6667 13.0203 12.5263 13.3594 12.2762 13.6095C12.0262 13.8595 11.687 14 11.3334 14C10.9798 14 10.6407 13.8595 10.3906 13.6095C10.1406 13.3594 10.0001 13.0203 10.0001 12.6667C10.0001 12.313 10.1406 11.9739 10.3906 11.7239C10.6407 11.4738 10.9798 11.3333 11.3334 11.3333ZM4.00008 3.33333L13.3334 4L12.6667 8.66667H4.00008" stroke="#D9D9D9" stroke-linecap="round" stroke-linejoin="round"/>
</svg>
