<svg width="24" height="20" viewBox="0 0 24 20" fill="none" xmlns="http://www.w3.org/2000/svg">
<g clip-path="url(#clip0_100_4373)">
<path d="M8.86837 1.05647e-07L6.33676 5.03992L2.3576 1.92412L3.81933 7.81788L0.00903333 9.7288L3.90957 11.872L2.70692 17.552L6.47726 14.7357L9.24347 20L9.82481 13.907L23.8827 17.552L11.797 10.035L23.9923 3.06697L9.68302 6.09172L8.86837 1.05647e-07ZM12.3938 7.48796L8.05759 9.96503L12.1824 12.5305L8.16457 11.4893L7.97122 13.5163L7.10888 11.8773L5.59301 13.0096L6.04803 10.8624L4.13127 9.8093L6.01838 8.86308L5.51309 6.82415L6.98127 7.97361L7.81396 6.31739L8.09239 8.39987L12.3938 7.4906L12.3938 7.48796Z"/>
</g>
<defs>
<clipPath id="clip0_100_4373">
<rect width="20" height="24" fill="white" transform="translate(0 20) rotate(-90)"/>
</clipPath>
</defs>
</svg>
