<svg width="24" height="24" viewBox="0 0 24 24" fill="none" xmlns="http://www.w3.org/2000/svg">
<g clip-path="url(#clip0_100_4359)">
<path d="M12.5138 15.1365C12.5138 14.4371 11.8747 14.0363 11.4925 13.8599C10.9602 13.6123 10.2639 13.4762 9.5304 13.4762C8.79694 13.4762 8.10061 13.6123 7.56831 13.8599C6.68011 14.2715 6.54858 14.8363 6.54858 15.1365C6.54858 15.8359 7.18766 16.2367 7.56831 16.4131C8.10061 16.6607 8.79694 16.7969 9.5304 16.7969C10.2639 16.7969 10.9602 16.6607 11.4925 16.4131C12.3807 16.0015 12.5138 15.4367 12.5138 15.1365Z"/>
<path d="M7.32839 0.942396C5.89861 1.54743 4.61582 2.41242 3.51408 3.51416C2.41234 4.6159 1.54735 5.89868 0.942321 7.32847C0.317175 8.80777 -0.00158675 10.3799 -0.00158677 12C-0.00158679 13.6202 0.315628 15.1908 0.94232 16.6716C1.54735 18.1014 2.41234 19.3842 3.51408 20.4859C4.61582 21.5877 5.89861 22.4527 7.32839 23.0577C8.8077 23.6828 10.3798 24.0016 12 24.0016C13.6201 24.0016 15.1907 23.6844 16.6715 23.0577C18.1013 22.4527 19.3841 21.5877 20.4858 20.4859C21.5876 19.3842 22.4526 18.1014 23.0576 16.6716C23.6827 15.1923 24.0015 13.6202 24.0015 12C24.0015 10.3799 23.6843 8.80932 23.0576 7.32847C22.4526 5.89868 21.5876 4.6159 20.4858 3.51416C19.3841 2.41242 18.1013 1.54743 16.6715 0.942396C15.1922 0.317251 13.6201 -0.00151046 12 -0.00151048C10.3798 -0.0015105 8.80925 0.315704 7.32839 0.942396ZM19.7586 4.24143C21.8305 6.31338 22.9725 9.06928 22.9725 12C22.9725 14.9308 21.8305 17.6867 19.7586 19.7586C17.6866 21.8306 14.9307 22.971 12 22.971C9.06921 22.971 6.31331 21.8291 4.24135 19.7571C2.1694 17.6851 1.02897 14.9308 1.02897 12C1.02897 9.06928 2.17095 6.31338 4.2429 4.24143C6.31485 2.16948 9.07075 1.0275 12.0015 1.0275C14.9323 1.0275 17.6882 2.16948 19.7601 4.24143L19.7586 4.24143Z"/>
<path d="M12.5138 8.86346C12.5138 8.16404 11.8747 7.76326 11.4925 7.58686C10.9602 7.33928 10.2639 7.20311 9.5304 7.20311C8.79694 7.20311 8.10061 7.33928 7.56831 7.58686C6.68011 8.00001 6.54858 8.56326 6.54858 8.86346C6.54858 9.56133 7.18766 9.96365 7.56831 10.1401C8.10061 10.3876 8.79694 10.5238 9.5304 10.5238C10.2639 10.5238 10.9602 10.3876 11.4925 10.1401C12.3807 9.7269 12.5138 9.16365 12.5138 8.86346Z"/>
<path d="M17.1884 8.83869C17.7362 9.78879 18.0256 10.8828 18.0256 12C18.0256 13.1172 17.7362 14.2097 17.1884 15.1613C16.6066 16.1702 15.7385 17.0012 14.677 17.5629L15.1582 18.4712C16.3915 17.8182 17.402 16.8511 18.0797 15.6735C18.7172 14.5671 19.0546 13.2967 19.0546 11.9985C19.0546 10.7018 18.7172 9.43135 18.0797 8.32496C17.402 7.1474 16.3915 6.18028 15.1582 5.52728L14.677 6.4356C15.7401 6.9973 16.6081 7.8298 17.1884 8.83869Z"/>
</g>
<defs>
<clipPath id="clip0_100_4359">
<rect width="24" height="24" fill="white" transform="translate(0 24) rotate(-90)"/>
</clipPath>
</defs>
</svg>
