<svg width="24" height="28" viewBox="0 0 24 28" fill="none" xmlns="http://www.w3.org/2000/svg">
<g clip-path="url(#clip0_100_4366)">
<path d="M3.77136e-08 13.9585L5.4053 17.1211L5.4053 10.8207L3.77136e-08 13.9585Z"/>
<path d="M24 0.028269L5.57837 10.7202L8.3481 10.7202L8.3481 17.2362L5.60145 17.2362L23.9524 27.9718L23.9625 21.9757L21.2403 21.9757L21.2403 5.99818L23.9899 5.99818L24 0.028269ZM9.14872 18.168L9.14872 9.83202L12.0916 9.83202L12.0916 18.168L9.14872 18.168ZM13.1042 19.3722L13.1042 8.59873L16.1697 8.59873L16.1697 19.3722L13.1042 19.3722ZM20.2666 7.07858L20.2666 20.8938L17.1434 20.8938L17.1434 7.07858L20.2666 7.07858Z"/>
</g>
<defs>
<clipPath id="clip0_100_4366">
<rect width="28" height="24" fill="white" transform="translate(0 28) rotate(-90)"/>
</clipPath>
</defs>
</svg>
