<svg width="24" height="24" viewBox="0 0 24 24" fill="none" xmlns="http://www.w3.org/2000/svg">
<g clip-path="url(#clip0_100_4340)">
<path d="M23.9993 11.8332L21.0884 7.15173L12.3802 11.6258L16.7214 2.83493L11.9938 0L7.27436 2.84714L11.6481 11.6489L2.7786 7.40255L0.000610352 12.1641L2.90469 16.8483L11.6264 12.381L7.27843 21.1583L12.002 24L16.7255 21.1583L12.3735 12.3728L21.228 16.5974L23.9993 11.8332ZM19.6486 12.3145L20.4281 15.2905L14.3556 12.3932L19.6486 12.3145ZM20.3278 8.48311L19.6364 11.4807L14.3434 11.558L20.3278 8.48311ZM22.7791 12.2684L21.2077 14.9692L20.5095 12.301L22.7791 12.2684ZM22.7669 11.4333L20.4973 11.4672L21.1169 8.78002L22.7669 11.4333ZM8.90266 2.84036L11.5776 1.22698L11.5803 3.49655L8.90266 2.84036ZM11.5817 4.35747L11.5885 9.65179L8.59354 3.62671L11.5803 4.35883L11.5817 4.35747ZM12.4236 9.65044L12.4168 4.35612L15.4023 3.61722L12.4236 9.65044ZM12.4128 1.22562L15.0931 2.83222L12.4168 3.4952L12.4141 1.22562H12.4128ZM12.4195 19.6439V14.3496L15.4063 20.3787L12.4195 19.6439ZM15.0972 21.1637L12.4195 22.7744V20.5048L15.0972 21.1637ZM8.59761 20.3787L11.5844 14.3496V19.6439L8.59761 20.3787ZM11.5844 20.5034V22.773L8.90672 21.1624L11.5844 20.5034ZM9.65647 12.4515L3.66799 15.5182L4.36351 12.522L9.65647 12.4515ZM4.35131 11.6868L3.5758 8.71088L9.64427 11.6163L4.35131 11.6868ZM2.79623 9.03084L3.49174 11.699L1.22217 11.7288L2.79623 9.03084ZM3.50259 12.5342L2.87893 15.22L1.23301 12.564L3.50259 12.5342Z"/>
</g>
<defs>
<clipPath id="clip0_100_4340">
<rect width="24" height="24" fill="white"/>
</clipPath>
</defs>
</svg>
