<svg width="24" height="18" viewBox="0 0 24 18" fill="none" xmlns="http://www.w3.org/2000/svg">
<g clip-path="url(#clip0_100_4377)">
<path d="M2.73664 8.71159L0 5.89077L2.72984 3.0794L10.4324 3.06995L13.1119 5.88942L10.4379 8.70349L2.73528 8.71294L2.73664 8.71159ZM0.880023 5.89077L3.00731 8.08339L10.1658 8.07528L12.2428 5.88942L10.1604 3.69815L3.00187 3.70625L0.880023 5.89077Z" fill="inherit"/>
<path d="M13.5906 11.7823L10.854 8.96145L13.5838 6.15008L21.2864 6.14062L23.9659 8.9601L21.2919 11.7742L13.5893 11.7836L13.5906 11.7823ZM11.734 8.96145L13.8613 11.1541L21.0198 11.146L23.0968 8.9601L21.0144 6.76882L13.8559 6.77693L11.7354 8.96145H11.734Z" fill="inherit"/>
<path d="M2.753 14.8544L0.0163574 12.0336L2.7462 9.22223L10.4488 9.21277L13.1283 12.0322L10.4542 14.8463L2.75164 14.8558L2.753 14.8544ZM0.89638 12.0336L3.02367 14.2262L10.1822 14.2181L12.2591 12.0322L10.1767 9.84097L3.01823 9.84907L0.89774 12.0336H0.89638Z" fill="inherit"/>
<path d="M13.607 17.9887L10.8704 15.1679L13.6002 12.3565L21.3028 12.347L23.9823 15.1665L21.3082 17.9806L13.6056 17.99L13.607 17.9887ZM11.7504 15.1665L13.8777 17.3591L21.0362 17.351L23.1131 15.1652L21.0307 12.9739L13.8722 12.982L11.7517 15.1665H11.7504Z" fill="inherit"/>
<path d="M13.6234 5.653L10.8867 2.83217L13.6179 0.0208093L21.3205 0.0113525L24 2.83082L21.3259 5.64489L13.6234 5.653ZM11.7667 2.83217L13.894 5.0248L21.0525 5.01669L23.1295 2.83082L21.0471 0.639553L13.8886 0.647659L11.7681 2.83217H11.7667Z" fill="inherit"/>
</g>
<defs>
<clipPath id="clip0_100_4377">
<rect width="24" height="18" fill="white"/>
</clipPath>
</defs>
</svg>
