<svg viewBox="0 0 24 24" fill="none" xmlns="http://www.w3.org/2000/svg">
<g id="tabler-icon-recycle">
<path id="Vector" d="M12 17L10 19M10 19L12 21M10 19H19C19.3186 18.9836 19.6287 18.8912 19.9043 18.7305C20.1799 18.5698 20.4131 18.3456 20.5843 18.0764C20.7556 17.8073 20.86 17.501 20.8888 17.1833C20.9177 16.8656 20.8701 16.5456 20.75 16.25L20.2 15.25M8.53602 11.0001L7.80402 8.26807M7.80402 8.26807L5.07202 9.00007M7.80402 8.26807L3.30399 16.0621C3.15903 16.3461 3.0841 16.6608 3.08547 16.9797C3.08683 17.2986 3.16444 17.6126 3.31182 17.8954C3.4592 18.1782 3.67208 18.4217 3.9327 18.6055C4.19331 18.7893 4.49411 18.9081 4.80999 18.9521L5.95099 18.9761M15.4641 11L18.1961 11.732M18.1961 11.732L18.9281 9M18.1961 11.732L13.6961 3.93806C13.5225 3.6705 13.2875 3.44833 13.0105 3.2901C12.7336 3.13187 12.4229 3.04216 12.1042 3.02846C11.7856 3.01476 11.4683 3.07746 11.1788 3.21134C10.8893 3.34522 10.636 3.54639 10.4401 3.79806L9.84912 4.77406" stroke-linecap="round" stroke-linejoin="round"/>
</g>
</svg>
