<svg xmlns="http://www.w3.org/2000/svg" xmlns:xlink="http://www.w3.org/1999/xlink" width="82" height="511" viewBox="0 0 82 511">
<path d="M81.5 187.256V20C81.5 9.23045 72.7696 0.5 62 0.5H0.5V510.5H32C42.7696 510.5 51.5 501.77 51.5 491V253.244C51.5 244.226 54.5102 235.465 60.0536 228.351L73.1576 211.534C78.5641 204.596 81.5 196.052 81.5 187.256Z"/>
<path d="M81.5 187.256V20C81.5 9.23045 72.7696 0.5 62 0.5H0.5V510.5H32C42.7696 510.5 51.5 501.77 51.5 491V253.244C51.5 244.226 54.5102 235.465 60.0536 228.351L73.1576 211.534C78.5641 204.596 81.5 196.052 81.5 187.256Z"/>
</svg>