<svg width="36" height="36" viewBox="0 0 36 36" fill="none" xmlns="http://www.w3.org/2000/svg">
<g clip-path="url(#clip0_100_4384)">
<path d="M18.5768 4.10496L24.2185 -2.46604e-07L29.8412 4.09476L29.8601 15.6486L24.2212 19.6679L18.593 15.6568L18.5741 4.10292L18.5768 4.10496ZM24.2185 1.32003L19.8332 4.51097L19.8494 15.2487L24.2212 18.3642L28.6037 15.2406L28.5875 4.50281L24.2185 1.32003Z" fill="#B5A99A"/>
<path d="M12.4355 20.3861L18.0771 16.2811L23.6998 20.3759L23.7187 31.9298L18.0798 35.949L12.4517 31.9379L12.4328 20.384L12.4355 20.3861ZM18.0771 17.6012L13.6919 20.7921L13.7081 31.5299L18.0798 34.6453L22.4623 31.5217L22.4461 20.7839L18.0771 17.6032L18.0771 17.6012Z" fill="#B5A99A"/>
<path d="M6.29117 4.12943L11.9328 0.0244749L17.5555 4.11923L17.5745 15.6731L11.9355 19.6924L6.30738 15.6813L6.28847 4.12739L6.29117 4.12943ZM11.9328 1.34451L7.54757 4.53544L7.56379 15.2732L11.9355 18.3887L16.3181 15.2651L16.3018 4.52728L11.9328 1.34655L11.9328 1.34451Z" fill="#B5A99A"/>
<path d="M0.0226181 20.4106L5.66426 16.3056L11.287 20.4004L11.3059 31.9542L5.66696 35.9735L0.0388301 31.9624L0.0199173 20.4085L0.0226181 20.4106ZM5.66696 17.6256L1.28172 20.8166L1.29793 31.5543L5.66967 34.6698L10.0522 31.5462L10.036 20.8084L5.66696 17.6277L5.66696 17.6256Z" fill="#B5A99A"/>
<path d="M24.694 20.435L30.3357 16.3301L35.9584 20.4269L35.9773 31.9807L30.3384 36L24.7102 31.9889L24.694 20.435ZM30.3357 17.6501L25.9504 20.841L25.9666 31.5788L30.3384 34.6943L34.7209 31.5707L34.7047 20.8329L30.3357 17.6522L30.3357 17.6501Z" fill="#B5A99A"/>
</g>
<defs>
<clipPath id="clip0_100_4384">
<rect width="36" height="36" fill="white" transform="translate(36) rotate(90)"/>
</clipPath>
</defs>
</svg>
