<svg width="18" height="42" viewBox="0 0 18 42" fill="none" xmlns="http://www.w3.org/2000/svg">
<path fill-rule="evenodd" clip-rule="evenodd" d="M2 1C2 1.55228 1.55228 2 1 2C0.447715 2 0 1.55228 0 1C0 0.447715 0.447715 0 1 0C1.55228 0 2 0.447715 2 1ZM6 1C6 1.55228 5.55228 2 5 2C4.44772 2 4 1.55228 4 1C4 0.447715 4.44772 0 5 0C5.55228 0 6 0.447715 6 1ZM9 2C9.55229 2 10 1.55228 10 1C10 0.447715 9.55229 0 9 0C8.44771 0 8 0.447715 8 1C8 1.55228 8.44771 2 9 2ZM14 1C14 1.55228 13.5523 2 13 2C12.4477 2 12 1.55228 12 1C12 0.447715 12.4477 0 13 0C13.5523 0 14 0.447715 14 1ZM17 2C17.5523 2 18 1.55228 18 1C18 0.447715 17.5523 0 17 0C16.4477 0 16 0.447715 16 1C16 1.55228 16.4477 2 17 2ZM2 5C2 5.55228 1.55228 6 1 6C0.447715 6 0 5.55228 0 5C0 4.44772 0.447715 4 1 4C1.55228 4 2 4.44772 2 5ZM1 10C1.55228 10 2 9.55229 2 9C2 8.44771 1.55228 8 1 8C0.447715 8 0 8.44771 0 9C0 9.55229 0.447715 10 1 10ZM2 13C2 13.5523 1.55228 14 1 14C0.447715 14 0 13.5523 0 13C0 12.4477 0.447715 12 1 12C1.55228 12 2 12.4477 2 13ZM1 18C1.55228 18 2 17.5523 2 17C2 16.4477 1.55228 16 1 16C0.447715 16 0 16.4477 0 17C0 17.5523 0.447715 18 1 18ZM2 21C2 21.5523 1.55228 22 1 22C0.447715 22 0 21.5523 0 21C0 20.4477 0.447715 20 1 20C1.55228 20 2 20.4477 2 21ZM1 26C1.55228 26 2 25.5523 2 25C2 24.4477 1.55228 24 1 24C0.447715 24 0 24.4477 0 25C0 25.5523 0.447715 26 1 26ZM2 29C2 29.5523 1.55228 30 1 30C0.447715 30 0 29.5523 0 29C0 28.4477 0.447715 28 1 28C1.55228 28 2 28.4477 2 29ZM1 34C1.55228 34 2 33.5523 2 33C2 32.4477 1.55228 32 1 32C0.447715 32 0 32.4477 0 33C0 33.5523 0.447715 34 1 34ZM2 37C2 37.5523 1.55228 38 1 38C0.447715 38 0 37.5523 0 37C0 36.4477 0.447715 36 1 36C1.55228 36 2 36.4477 2 37ZM1 42C1.55228 42 2 41.5523 2 41C2 40.4477 1.55228 40 1 40C0.447715 40 0 40.4477 0 41C0 41.5523 0.447715 42 1 42ZM6 5C6 5.55228 5.55228 6 5 6C4.44772 6 4 5.55228 4 5C4 4.44772 4.44772 4 5 4C5.55228 4 6 4.44772 6 5ZM5 10C5.55228 10 6 9.55229 6 9C6 8.44771 5.55228 8 5 8C4.44772 8 4 8.44771 4 9C4 9.55229 4.44772 10 5 10ZM6 13C6 13.5523 5.55228 14 5 14C4.44772 14 4 13.5523 4 13C4 12.4477 4.44772 12 5 12C5.55228 12 6 12.4477 6 13ZM5 18C5.55228 18 6 17.5523 6 17C6 16.4477 5.55228 16 5 16C4.44772 16 4 16.4477 4 17C4 17.5523 4.44772 18 5 18ZM6 21C6 21.5523 5.55228 22 5 22C4.44772 22 4 21.5523 4 21C4 20.4477 4.44772 20 5 20C5.55228 20 6 20.4477 6 21ZM5 26C5.55228 26 6 25.5523 6 25C6 24.4477 5.55228 24 5 24C4.44772 24 4 24.4477 4 25C4 25.5523 4.44772 26 5 26ZM6 29C6 29.5523 5.55228 30 5 30C4.44772 30 4 29.5523 4 29C4 28.4477 4.44772 28 5 28C5.55228 28 6 28.4477 6 29ZM5 34C5.55228 34 6 33.5523 6 33C6 32.4477 5.55228 32 5 32C4.44772 32 4 32.4477 4 33C4 33.5523 4.44772 34 5 34ZM6 37C6 37.5523 5.55228 38 5 38C4.44772 38 4 37.5523 4 37C4 36.4477 4.44772 36 5 36C5.55228 36 6 36.4477 6 37ZM5 42C5.55228 42 6 41.5523 6 41C6 40.4477 5.55228 40 5 40C4.44772 40 4 40.4477 4 41C4 41.5523 4.44772 42 5 42ZM10 5C10 5.55228 9.55229 6 9 6C8.44771 6 8 5.55228 8 5C8 4.44772 8.44771 4 9 4C9.55229 4 10 4.44772 10 5ZM9 10C9.55229 10 10 9.55229 10 9C10 8.44771 9.55229 8 9 8C8.44771 8 8 8.44771 8 9C8 9.55229 8.44771 10 9 10ZM10 13C10 13.5523 9.55229 14 9 14C8.44771 14 8 13.5523 8 13C8 12.4477 8.44771 12 9 12C9.55229 12 10 12.4477 10 13ZM9 18C9.55229 18 10 17.5523 10 17C10 16.4477 9.55229 16 9 16C8.44771 16 8 16.4477 8 17C8 17.5523 8.44771 18 9 18ZM10 21C10 21.5523 9.55229 22 9 22C8.44771 22 8 21.5523 8 21C8 20.4477 8.44771 20 9 20C9.55229 20 10 20.4477 10 21ZM9 26C9.55229 26 10 25.5523 10 25C10 24.4477 9.55229 24 9 24C8.44771 24 8 24.4477 8 25C8 25.5523 8.44771 26 9 26ZM10 29C10 29.5523 9.55229 30 9 30C8.44771 30 8 29.5523 8 29C8 28.4477 8.44771 28 9 28C9.55229 28 10 28.4477 10 29ZM9 34C9.55229 34 10 33.5523 10 33C10 32.4477 9.55229 32 9 32C8.44771 32 8 32.4477 8 33C8 33.5523 8.44771 34 9 34ZM10 37C10 37.5523 9.55229 38 9 38C8.44771 38 8 37.5523 8 37C8 36.4477 8.44771 36 9 36C9.55229 36 10 36.4477 10 37ZM9 42C9.55229 42 10 41.5523 10 41C10 40.4477 9.55229 40 9 40C8.44771 40 8 40.4477 8 41C8 41.5523 8.44771 42 9 42ZM14 5C14 5.55228 13.5523 6 13 6C12.4477 6 12 5.55228 12 5C12 4.44772 12.4477 4 13 4C13.5523 4 14 4.44772 14 5ZM17 6C17.5523 6 18 5.55228 18 5C18 4.44772 17.5523 4 17 4C16.4477 4 16 4.44772 16 5C16 5.55228 16.4477 6 17 6ZM14 9C14 9.55229 13.5523 10 13 10C12.4477 10 12 9.55229 12 9C12 8.44771 12.4477 8 13 8C13.5523 8 14 8.44771 14 9ZM17 10C17.5523 10 18 9.55229 18 9C18 8.44771 17.5523 8 17 8C16.4477 8 16 8.44771 16 9C16 9.55229 16.4477 10 17 10ZM14 13C14 13.5523 13.5523 14 13 14C12.4477 14 12 13.5523 12 13C12 12.4477 12.4477 12 13 12C13.5523 12 14 12.4477 14 13ZM17 14C17.5523 14 18 13.5523 18 13C18 12.4477 17.5523 12 17 12C16.4477 12 16 12.4477 16 13C16 13.5523 16.4477 14 17 14ZM14 17C14 17.5523 13.5523 18 13 18C12.4477 18 12 17.5523 12 17C12 16.4477 12.4477 16 13 16C13.5523 16 14 16.4477 14 17ZM17 18C17.5523 18 18 17.5523 18 17C18 16.4477 17.5523 16 17 16C16.4477 16 16 16.4477 16 17C16 17.5523 16.4477 18 17 18ZM14 21C14 21.5523 13.5523 22 13 22C12.4477 22 12 21.5523 12 21C12 20.4477 12.4477 20 13 20C13.5523 20 14 20.4477 14 21ZM17 22C17.5523 22 18 21.5523 18 21C18 20.4477 17.5523 20 17 20C16.4477 20 16 20.4477 16 21C16 21.5523 16.4477 22 17 22ZM14 25C14 25.5523 13.5523 26 13 26C12.4477 26 12 25.5523 12 25C12 24.4477 12.4477 24 13 24C13.5523 24 14 24.4477 14 25ZM17 26C17.5523 26 18 25.5523 18 25C18 24.4477 17.5523 24 17 24C16.4477 24 16 24.4477 16 25C16 25.5523 16.4477 26 17 26ZM14 29C14 29.5523 13.5523 30 13 30C12.4477 30 12 29.5523 12 29C12 28.4477 12.4477 28 13 28C13.5523 28 14 28.4477 14 29ZM17 30C17.5523 30 18 29.5523 18 29C18 28.4477 17.5523 28 17 28C16.4477 28 16 28.4477 16 29C16 29.5523 16.4477 30 17 30ZM14 33C14 33.5523 13.5523 34 13 34C12.4477 34 12 33.5523 12 33C12 32.4477 12.4477 32 13 32C13.5523 32 14 32.4477 14 33ZM17 34C17.5523 34 18 33.5523 18 33C18 32.4477 17.5523 32 17 32C16.4477 32 16 32.4477 16 33C16 33.5523 16.4477 34 17 34ZM14 37C14 37.5523 13.5523 38 13 38C12.4477 38 12 37.5523 12 37C12 36.4477 12.4477 36 13 36C13.5523 36 14 36.4477 14 37ZM17 38C17.5523 38 18 37.5523 18 37C18 36.4477 17.5523 36 17 36C16.4477 36 16 36.4477 16 37C16 37.5523 16.4477 38 17 38ZM14 41C14 41.5523 13.5523 42 13 42C12.4477 42 12 41.5523 12 41C12 40.4477 12.4477 40 13 40C13.5523 40 14 40.4477 14 41ZM17 42C17.5523 42 18 41.5523 18 41C18 40.4477 17.5523 40 17 40C16.4477 40 16 40.4477 16 41C16 41.5523 16.4477 42 17 42Z" fill="#D9D9D9"/>
</svg>
