<svg width="1213" height="763" viewBox="0 0 1213 763" fill="none" xmlns="http://www.w3.org/2000/svg">
<path d="M0.5 715V738C0.5 751.255 11.2452 762 24.5 762H1133.62C1146.35 762 1158.56 756.943 1167.56 747.941L1201 714.5M0.5 223V159.5M1212 223.5V221C1212 207.745 1201.25 197 1188 197H616.484C600.436 197 584.993 190.876 573.306 179.877L517.822 127.656C505.172 115.751 498 99.1504 498 81.7794V7C498 3.68629 495.314 1 492 1H454.5C451.186 1 448.5 3.68629 448.5 7V19C448.5 22.3137 445.814 25 442.5 25H271C267.686 25 265 22.3137 265 19V7C265 3.68629 262.314 1 259 1H99.4115C86.369 1 73.888 6.3074 64.84 15.7011L13.9286 68.5583C5.31327 77.5028 0.5 89.4383 0.5 101.857V108.5" stroke="#D9D9D9"/>
</svg>
