<svg viewBox="0 0 324 81" fill="none" xmlns="http://www.w3.org/2000/svg">
<path fill-rule="evenodd" clip-rule="evenodd" d="M92.4977 35.0244L90.8549 40.7851L89.2512 46.4162L81.4336 73.8396C80.2226 78.0775 76.3463 81 71.931 81H6.15026C2.0694 81 -0.878431 77.1055 0.238368 73.1851L7.86766 46.4162L9.47144 40.7851L11.1142 35.0244L19.5226 5.54364L21.1037 0H55.8283L54.2473 5.54364L45.8453 35.0244L44.2026 40.7851L42.5988 46.4162L34.2553 75.6832H43.0858C44.9201 75.6832 46.5336 74.4649 47.0336 72.7056L54.5265 46.4162L56.1335 40.7851L57.7763 35.0244L66.1782 5.54364L67.7593 0H102.481L100.9 5.54364L92.4977 35.0244ZM182.335 35.0244L180.692 40.7851H180.686L179.079 46.4162L170.735 75.6832L169.222 81H134.495L136.014 75.6832L144.357 46.4162L145.961 40.7851L147.604 35.0244L156.012 5.54364H148.175C146.195 5.54364 144.458 6.8526 143.919 8.75124L136.433 35.0244L134.79 40.7851L133.183 46.4162L124.839 75.6832L123.327 81H88.5986L90.118 75.6832L98.4583 46.4162L100.065 40.7851L101.708 35.0244L109.25 8.57304C110.698 3.4992 115.34 0 120.625 0H185.676C189.007 0 191.412 3.18168 190.5 6.37632L182.335 35.0244ZM253.125 0H318.88C322.279 0 324.73 3.24324 323.802 6.50592L315.673 35.0244L314.033 40.7851H267.553L265.946 46.4162L257.606 75.6832H264.053C267.193 75.6832 269.952 73.6063 270.809 70.5931L277.701 46.4162H312.426L304.716 73.4605C303.443 77.922 299.362 81 294.713 81H228.504C224.923 81 222.332 77.5818 223.316 74.1409L231.218 46.4162L232.825 40.7851L234.468 35.0244L242.084 8.32032C243.49 3.39552 247.996 0 253.125 0ZM269.199 35.0244H280.951L289.353 5.54364H281.727C279.283 5.54364 277.14 7.16364 276.471 9.50616L269.199 35.0244ZM225.689 35.0244L234.091 5.54364L235.672 0H200.944L199.363 5.54364L190.961 35.0244L189.318 40.7851L187.711 46.4162L179.371 75.6832L177.852 81H212.58L214.096 75.6832L222.439 46.4162L224.046 40.7851L225.689 35.0244Z" fill="#262627"/>
</svg>
