<svg width="95" height="24" viewBox="0 0 95 24" fill="none" xmlns="http://www.w3.org/2000/svg">
<path fill-rule="evenodd" clip-rule="evenodd" d="M26.4067 10.3776L25.92 12.0845L25.4448 13.753L23.1285 21.8784C22.7697 23.1341 21.6211 24 20.3129 24H0.8223C-0.386844 24 -1.26028 22.8461 -0.929372 21.6845L1.33116 13.753L1.80635 12.0845L2.29309 10.3776L4.78448 1.64256L5.25294 0H15.5417L15.0733 1.64256L12.5838 10.3776L12.0971 12.0845L11.6219 13.753L9.14972 22.4246H11.7662C12.3097 22.4246 12.7877 22.0637 12.9359 21.5424L15.156 13.753L15.6322 12.0845L16.1189 10.3776L18.6084 1.64256L19.0768 0H29.3646L28.8962 1.64256L26.4067 10.3776ZM53.0252 10.3776L52.5385 12.0845H52.5366L52.0604 13.753L49.5882 22.4246L49.14 24H38.8502L39.3004 22.4246L41.7726 13.753L42.2478 12.0845L42.7345 10.3776L45.2259 1.64256H42.9038C42.317 1.64256 41.8024 2.0304 41.6427 2.59296L39.4245 10.3776L38.9378 12.0845L38.4616 13.753L35.9895 22.4246L35.5412 24H25.2515L25.7016 22.4246L28.1728 13.753L28.649 12.0845L29.1357 10.3776L31.3703 2.54016C31.7993 1.0368 33.1749 0 34.7409 0H54.015C55.002 0 55.7148 0.94272 55.4445 1.88928L53.0252 10.3776ZM74.0001 0H93.483C94.4901 0 95.2164 0.96096 94.9413 1.92768L92.5326 10.3776L92.0468 12.0845H78.2749L77.7988 13.753L75.3276 22.4246H77.238C78.1682 22.4246 78.9858 21.8093 79.2397 20.9165L81.2819 13.753H91.5707L89.2861 21.7661C88.909 23.088 87.6999 24 86.3224 24H66.7048C65.6438 24 64.8762 22.9872 65.1677 21.9677L67.509 13.753L67.9852 12.0845L68.4719 10.3776L70.7286 2.46528C71.1451 1.00608 72.4803 0 74.0001 0ZM78.7626 10.3776H82.2448L84.7343 1.64256H82.4747C81.7504 1.64256 81.1155 2.12256 80.9173 2.81664L78.7626 10.3776ZM65.8708 10.3776L68.3603 1.64256L68.8288 0H58.539L58.0705 1.64256L55.5811 10.3776L55.0943 12.0845L54.6182 13.753L52.147 22.4246L51.6968 24H61.9866L62.4358 22.4246L64.9079 13.753L65.3841 12.0845L65.8708 10.3776Z" fill="#B5A99A"/>
</svg>
