<svg viewBox="0 0 324 103" fill="none" xmlns="http://www.w3.org/2000/svg">
<path fill-rule="evenodd" clip-rule="evenodd" d="M246.074 0H240.022L234.667 7.26173L229.337 0H223.285L232.326 11.2905V17.7564H237.033V11.2905L246.074 0ZM185.671 21.9526C189 21.9526 191.409 25.1348 190.499 28.3323L182.331 56.9925L180.689 62.758L179.083 68.3916L170.737 97.671L169.223 102.99H134.497L136.017 97.671L144.363 68.3916L145.964 62.758L147.605 56.9925L156.012 27.4948H148.175C146.197 27.4948 144.459 28.8043 143.92 30.7024L136.433 56.9874L134.792 62.7529L133.185 68.3865L124.839 97.6659L123.325 102.985H88.5988L90.1186 97.6659L98.4595 68.3865L100.066 62.7529L101.707 56.9874L109.25 30.5248C110.699 25.4444 115.34 21.9475 120.626 21.9475H185.671V21.9526ZM253.12 21.9526C247.991 21.9526 243.483 25.348 242.08 30.2761L234.461 56.9925L232.819 62.758L231.213 68.3916L223.309 96.1281C222.328 99.5692 224.915 102.99 228.499 102.99H294.707C299.353 102.99 303.435 99.9092 304.71 95.448L312.421 68.3916H277.7L270.808 92.5805C269.949 95.5952 267.189 97.671 264.053 97.671H257.608L265.949 68.3916L267.555 62.758H314.032L315.669 56.9925L323.802 28.4592C324.732 25.1958 322.277 21.9526 318.881 21.9526H253.125H253.12ZM280.943 56.9925H269.192L276.465 31.4587C277.136 29.1139 279.276 27.4949 281.721 27.4949H289.345L280.943 56.9925ZM234.084 27.4999L235.665 21.9526H200.939L199.359 27.4999L190.957 56.9925L189.315 62.758L187.709 68.3916L179.368 97.6761L177.848 102.99H212.574L214.089 97.6761L222.435 68.3916L224.041 62.758L225.683 56.9925L234.084 27.4999ZM102.48 21.9527L100.899 27.5L92.4973 56.9976L90.8555 62.7631L89.2544 68.3967L81.437 95.8338C80.2273 100.072 76.3491 103 71.9372 103H6.15021C2.06871 103 -0.879334 99.1023 0.238888 95.1791L7.87329 68.3967L9.47438 62.7631L11.1161 56.9976L19.5231 27.5L21.1039 21.9527H55.8247L54.2439 27.5L45.842 56.9976L44.2002 62.7631L42.5992 68.3967L34.2532 97.6761H43.082C44.9169 97.6761 46.5282 96.458 47.0314 94.6969L54.5235 68.3916L56.1296 62.7581L57.7714 56.9925L66.1733 27.4949L67.7541 21.9476H102.475L102.48 21.9527ZM223.791 5.0484C223.791 6.41619 223.243 7.83372 221.998 8.87822C223.243 9.94758 223.791 11.3651 223.791 12.708C223.791 16.4135 221.076 17.7564 217.938 17.7564H201.152V0H217.938C221.076 0 223.791 1.34292 223.791 5.0484ZM205.859 7.26173H217.44C218.461 7.26173 219.084 6.78922 219.084 5.81933C219.084 4.94892 218.436 4.4018 217.54 4.4018H205.859V7.26173ZM217.44 10.5196H205.859V13.3546H217.54C218.436 13.3546 219.084 12.8324 219.084 11.9371C219.084 10.9672 218.461 10.5196 217.44 10.5196ZM180.57 17.7564C183.758 17.7564 189.96 17.0601 189.96 8.87822C189.96 0.721199 183.758 0 180.57 0H167.295V17.7564H180.57ZM184.978 8.87822C184.978 11.1413 184.381 13.3049 181.865 13.3049H172.027V4.47641H181.865C184.381 4.47641 184.978 6.64001 184.978 8.87822ZM145.454 0H164.806V4.4018H150.161V6.86383H164.806V11.0169H150.161V13.3546H164.806V17.7564H145.454V0ZM139.035 12.8324C141.402 12.1609 143.543 10.5444 143.543 6.64001C143.543 0.497378 138.263 0 135.051 0H122.324V17.7564H127.056V13.28H133.307L137.989 17.7564H144.44L139.035 12.8324ZM127.056 8.82848V4.47641H135.449C137.965 4.47641 138.587 5.24735 138.587 6.64001C138.587 8.03267 137.965 8.82848 135.449 8.82848H127.056ZM100.483 0H119.834V4.4018H105.19V6.86383H119.834V11.0169H105.19V13.3546H119.834V17.7564H100.483V0ZM99.487 0H94.1821L89.1013 12.534L84.6182 0H80.0355L75.5525 12.534L70.4468 0H65.1667L72.3894 17.7564H78.1178L82.3269 7.38608L86.536 17.7564H92.2643L99.487 0ZM56.5267 0C59.7396 0 65.9162 0.721199 65.9162 8.87822C65.9162 17.0601 59.7396 17.7564 56.5267 17.7564H52.6663C49.4535 17.7564 43.2768 17.0601 43.2768 8.87822C43.2768 0.721199 49.4535 0 52.6663 0H56.5267ZM57.8218 13.3049C60.3373 13.3049 60.96 11.1413 60.96 8.87822C60.96 6.64001 60.3373 4.47641 57.8218 4.47641H51.3712C48.8557 4.47641 48.2331 6.64001 48.2331 8.87822C48.2331 11.1413 48.8557 13.3049 51.3712 13.3049H57.8218ZM41.7798 6.64001C41.7798 0.497378 36.4998 0 33.2869 0H20.56V17.7564H25.2922V13.28H33.2869C36.4998 13.28 41.7798 12.7826 41.7798 6.64001ZM36.8236 6.64001C36.8236 8.03267 36.2009 8.82848 33.6854 8.82848H25.2922V4.47641H33.6854C36.2009 4.47641 36.8236 5.24735 36.8236 6.64001Z" fill="#B4A08E"/>
</svg>
