<svg width="67" height="71" viewBox="0 0 67 71" fill="none" xmlns="http://www.w3.org/2000/svg">
<path fill-rule="evenodd" clip-rule="evenodd" d="M6.98354 1.30933H13.7215L22.0617 21.1133L32.0054 0L42.0345 21.1133L50.5458 1.32158L57.2656 1.30933L41.9501 35.9197L32.0353 14.1102L21.9591 35.8521L6.98354 1.30933ZM8.25342 70.7635H7.34697V66.2474H1.4011V70.7635H0.5V61.1742H1.4011V65.4505H7.34697V61.1742H8.25342V70.7635ZM20.297 65.9145C20.297 66.6863 20.0923 70.1823 17.1185 70.1823C14.6616 70.1823 13.9524 67.7437 13.9524 65.9688C13.9524 64.1407 14.7028 61.7303 17.1591 61.7303C19.6016 61.7297 20.3114 64.1811 20.297 65.9145ZM21.2793 65.9017C21.2927 63.7337 20.3515 60.9382 17.1586 60.9382C14.2939 60.9382 12.993 63.3145 12.993 65.956C12.993 67.6489 13.52 68.9087 14.1977 69.6933C14.9887 70.6319 15.9716 71 17.1586 71C17.9496 71 19.1099 70.8503 20.0511 69.7482C20.8293 68.841 21.2654 67.3644 21.2793 65.9017ZM29.0252 70.7635H28.1193V61.9711H25.09V61.1742H32.069V61.9711H29.0252V70.7635ZM44.0179 70.7603H37.3943V61.1763H43.6764V62.0222H38.3013V65.4266H43.1713V66.2719H38.3013V69.9155H44.0179V70.7603ZM56.0235 70.7603H49.7735V61.1742H50.7013V69.9155H56.0235V70.7603ZM65.4642 63.4956C65.3819 63.2521 65.2734 62.9267 65.0559 62.6422C64.5797 61.9774 63.8042 61.6786 62.9763 61.6786C61.9416 61.6786 60.7182 62.1122 60.7182 63.3869C60.7182 64.5529 61.7925 64.8923 62.3371 65.0558C62.6086 65.1368 63.9811 65.4883 64.2809 65.5981C64.7967 65.7605 66.5 66.3172 66.5 68.1336C66.5 69.476 65.3675 71 62.9068 71C61.8871 71 61.1543 70.74 60.6509 70.413C59.9203 69.9229 59.5109 69.2176 59.3479 68.3377L60.258 67.862C60.2714 68.2418 60.3125 68.6349 60.4879 68.9731C60.9218 69.8691 61.9149 70.2079 62.9063 70.2079C64.755 70.2079 65.57 69.1905 65.57 68.1741C65.57 67.4832 65.2446 67.0901 64.9864 66.8861C64.5514 66.5196 63.9939 66.3838 62.7294 66.0588C61.3703 65.7062 59.839 65.2044 59.839 63.4279C59.839 61.5438 61.506 60.935 63.002 60.935C65.4626 60.935 66.0885 62.5069 66.3081 63.0353L65.4642 63.4956Z" fill="#B5A99A" fill-opacity="0.7"/>
</svg>
