<svg width="297" height="225" viewBox="0 0 297 225" fill="none" xmlns="http://www.w3.org/2000/svg">
<g filter="url(#filter0_ddddddd_187_6199)">
<path fill-rule="evenodd" clip-rule="evenodd" d="M127.907 69.8776L127.42 71.5845L126.945 73.253L124.628 81.3784C124.27 82.6341 123.121 83.5 121.813 83.5H102.322C101.113 83.5 100.24 82.3461 100.571 81.1845L102.831 73.253L103.306 71.5845L103.793 69.8776L106.284 61.1426L106.753 59.5H117.042L116.573 61.1426L114.084 69.8776L113.597 71.5845L113.122 73.253L110.65 81.9246H113.266C113.81 81.9246 114.288 81.5637 114.436 81.0424L116.656 73.253L117.132 71.5845L117.619 69.8776L120.108 61.1426L120.577 59.5H130.865L130.396 61.1426L127.907 69.8776ZM154.525 69.8776L154.038 71.5845H154.037L153.56 73.253L151.088 81.9246L150.64 83.5H140.35L140.8 81.9246L143.273 73.253L143.748 71.5845L144.235 69.8776L146.726 61.1426H144.404C143.817 61.1426 143.302 61.5304 143.143 62.093L140.925 69.8776L140.438 71.5845L139.962 73.253L137.489 81.9246L137.041 83.5H126.751L127.202 81.9246L129.673 73.253L130.149 71.5845L130.636 69.8776L132.87 62.0402C133.299 60.5368 134.675 59.5 136.241 59.5H155.515C156.502 59.5 157.215 60.4427 156.944 61.3893L154.525 69.8776ZM175.5 59.5H194.983C195.99 59.5 196.716 60.461 196.441 61.4277L194.033 69.8776L193.547 71.5845H179.775L179.299 73.253L176.828 81.9246H178.738C179.668 81.9246 180.486 81.3093 180.74 80.4165L182.782 73.253H193.071L190.786 81.2661C190.409 82.588 189.2 83.5 187.822 83.5H168.205C167.144 83.5 166.376 82.4872 166.668 81.4677L169.009 73.253L169.485 71.5845L169.972 69.8776L172.229 61.9653C172.645 60.5061 173.98 59.5 175.5 59.5ZM180.263 69.8776H183.745L186.234 61.1426H183.975C183.25 61.1426 182.615 61.6226 182.417 62.3166L180.263 69.8776ZM167.371 69.8776L169.86 61.1426L170.329 59.5H160.039L159.571 61.1426L157.081 69.8776L156.594 71.5845L156.118 73.253L153.647 81.9246L153.197 83.5H163.487L163.936 81.9246L166.408 73.253L166.884 71.5845L167.371 69.8776Z" fill="#B5A99A"/>
</g>
<defs>
<filter id="filter0_ddddddd_187_6199" x="0.5" y="0.5" width="296" height="224" filterUnits="userSpaceOnUse" color-interpolation-filters="sRGB">
<feFlood flood-opacity="0" result="BackgroundImageFix"/>
<feColorMatrix in="SourceAlpha" type="matrix" values="0 0 0 0 0 0 0 0 0 0 0 0 0 0 0 0 0 0 127 0" result="hardAlpha"/>
<feOffset dy="0.95006"/>
<feGaussianBlur stdDeviation="1.15861"/>
<feColorMatrix type="matrix" values="0 0 0 0 0.701961 0 0 0 0 0.658824 0 0 0 0 0.588235 0 0 0 0.121413 0"/>
<feBlend mode="normal" in2="BackgroundImageFix" result="effect1_dropShadow_187_6199"/>
<feColorMatrix in="SourceAlpha" type="matrix" values="0 0 0 0 0 0 0 0 0 0 0 0 0 0 0 0 0 0 127 0" result="hardAlpha"/>
<feOffset dy="2.20896"/>
<feGaussianBlur stdDeviation="2.69386"/>
<feColorMatrix type="matrix" values="0 0 0 0 0.701961 0 0 0 0 0.658824 0 0 0 0 0.588235 0 0 0 0.175413 0"/>
<feBlend mode="normal" in2="effect1_dropShadow_187_6199" result="effect2_dropShadow_187_6199"/>
<feColorMatrix in="SourceAlpha" type="matrix" values="0 0 0 0 0 0 0 0 0 0 0 0 0 0 0 0 0 0 127 0" result="hardAlpha"/>
<feOffset dy="3.96679"/>
<feGaussianBlur stdDeviation="4.83755"/>
<feColorMatrix type="matrix" values="0 0 0 0 0.701961 0 0 0 0 0.658824 0 0 0 0 0.588235 0 0 0 0.216224 0"/>
<feBlend mode="normal" in2="effect2_dropShadow_187_6199" result="effect3_dropShadow_187_6199"/>
<feColorMatrix in="SourceAlpha" type="matrix" values="0 0 0 0 0 0 0 0 0 0 0 0 0 0 0 0 0 0 127 0" result="hardAlpha"/>
<feOffset dy="6.5834"/>
<feGaussianBlur stdDeviation="8.02854"/>
<feColorMatrix type="matrix" values="0 0 0 0 0.701961 0 0 0 0 0.658824 0 0 0 0 0.588235 0 0 0 0.253776 0"/>
<feBlend mode="normal" in2="effect3_dropShadow_187_6199" result="effect4_dropShadow_187_6199"/>
<feColorMatrix in="SourceAlpha" type="matrix" values="0 0 0 0 0 0 0 0 0 0 0 0 0 0 0 0 0 0 127 0" result="hardAlpha"/>
<feOffset dy="10.8459"/>
<feGaussianBlur stdDeviation="13.2267"/>
<feColorMatrix type="matrix" values="0 0 0 0 0.701961 0 0 0 0 0.658824 0 0 0 0 0.588235 0 0 0 0.294587 0"/>
<feBlend mode="normal" in2="effect4_dropShadow_187_6199" result="effect5_dropShadow_187_6199"/>
<feColorMatrix in="SourceAlpha" type="matrix" values="0 0 0 0 0 0 0 0 0 0 0 0 0 0 0 0 0 0 127 0" result="hardAlpha"/>
<feOffset dy="18.9555"/>
<feGaussianBlur stdDeviation="23.1165"/>
<feColorMatrix type="matrix" values="0 0 0 0 0.701961 0 0 0 0 0.658824 0 0 0 0 0.588235 0 0 0 0.348587 0"/>
<feBlend mode="normal" in2="effect5_dropShadow_187_6199" result="effect6_dropShadow_187_6199"/>
<feColorMatrix in="SourceAlpha" type="matrix" values="0 0 0 0 0 0 0 0 0 0 0 0 0 0 0 0 0 0 127 0" result="hardAlpha"/>
<feOffset dy="41"/>
<feGaussianBlur stdDeviation="50"/>
<feColorMatrix type="matrix" values="0 0 0 0 0.701961 0 0 0 0 0.658824 0 0 0 0 0.588235 0 0 0 0.47 0"/>
<feBlend mode="normal" in2="effect6_dropShadow_187_6199" result="effect7_dropShadow_187_6199"/>
<feBlend mode="normal" in="SourceGraphic" in2="effect7_dropShadow_187_6199" result="shape"/>
</filter>
</defs>
</svg>
