<svg width="492" height="30" viewBox="0 0 492 30" fill="none" xmlns="http://www.w3.org/2000/svg">
<path d="M473.744 28.5853V0.560547H491.76V5.36478H479.029V12.0507H490.639V16.8549H479.029V23.781H492V28.5853H473.744Z" fill="#B4A08E"/>
<path d="M459.193 29.1457C457.031 29.1457 455.123 28.7587 453.468 27.9847C451.813 27.2107 450.519 26.103 449.585 24.6617C448.651 23.2205 448.184 21.4856 448.184 19.4572V18.3362H453.388V19.4572C453.388 21.1386 453.909 22.4064 454.95 23.2605C455.99 24.0879 457.405 24.5016 459.193 24.5016C461.008 24.5016 462.356 24.1413 463.237 23.4206C464.144 22.7 464.598 21.7792 464.598 20.6582C464.598 19.8842 464.371 19.257 463.917 18.7766C463.49 18.2961 462.85 17.9091 461.996 17.6155C461.168 17.2952 460.154 17.0017 458.953 16.7348L458.032 16.5346C456.111 16.1075 454.456 15.5737 453.068 14.9332C451.707 14.2659 450.652 13.3985 449.905 12.3309C449.184 11.2633 448.824 9.87537 448.824 8.1672C448.824 6.45903 449.224 5.00441 450.025 3.80335C450.853 2.5756 452 1.64145 453.468 1.00088C454.963 0.333628 456.711 0 458.713 0C460.715 0 462.49 0.346973 464.038 1.04092C465.612 1.70817 466.84 2.7224 467.721 4.0836C468.628 5.41811 469.082 7.09959 469.082 9.12805V10.3291H463.877V9.12805C463.877 8.06044 463.664 7.20635 463.237 6.56579C462.836 5.89853 462.249 5.41811 461.475 5.12452C460.701 4.80424 459.78 4.64409 458.713 4.64409C457.111 4.64409 455.924 4.95103 455.15 5.56491C454.402 6.15209 454.029 6.96614 454.029 8.00706C454.029 8.701 454.202 9.28819 454.549 9.76861C454.923 10.249 455.47 10.6494 456.191 10.9697C456.911 11.29 457.832 11.5702 458.953 11.8104L459.874 12.0106C461.876 12.4376 463.611 12.9848 465.078 13.652C466.573 14.3193 467.734 15.2001 468.562 16.2944C469.389 17.3887 469.803 18.7899 469.803 20.4981C469.803 22.2062 469.362 23.7142 468.481 25.0221C467.627 26.3032 466.4 27.3174 464.798 28.0647C463.224 28.7854 461.355 29.1457 459.193 29.1457Z" fill="#B4A08E"/>
<path d="M424.169 28.5853V0.560547H436.34C438.101 0.560547 439.636 0.867484 440.944 1.48136C442.252 2.09523 443.266 2.96266 443.986 4.08365C444.707 5.20464 445.067 6.52581 445.067 8.04715V8.52757C445.067 10.2091 444.667 11.5703 443.866 12.6112C443.066 13.6521 442.078 14.4128 440.904 14.8932V15.6138C441.971 15.6672 442.799 16.0409 443.386 16.7348C443.973 17.4021 444.267 18.2962 444.267 19.4172V28.5853H438.982V20.1778C438.982 19.5373 438.809 19.0168 438.462 18.6165C438.141 18.2161 437.594 18.0159 436.82 18.0159H429.454V28.5853H424.169ZM429.454 13.2117H435.779C437.034 13.2117 438.008 12.8781 438.702 12.2108C439.422 11.5169 439.783 10.6094 439.783 9.48842V9.08807C439.783 7.96708 439.436 7.07296 438.742 6.4057C438.048 5.71176 437.06 5.36478 435.779 5.36478H429.454V13.2117Z" fill="#B4A08E"/>
<path d="M402.001 28.5853V0.560547H420.017V5.36478H407.286V12.0507H418.896V16.8549H407.286V23.781H420.257V28.5853H402.001Z" fill="#B4A08E"/>
<path d="M382.457 28.5853L375.331 0.560547H380.776L386.701 25.1823H387.261L393.187 0.560547H398.631L391.505 28.5853H382.457Z" fill="#B4A08E"/>
<path d="M361.498 20.6583V16.0942H373.349V20.6583H361.498Z" fill="#B4A08E"/>
<path d="M339.25 28.5853V0.560547H357.266V5.36478H344.535V12.0507H356.145V16.8549H344.535V23.781H357.507V28.5853H339.25Z" fill="#B4A08E"/>
<path d="M328.694 28.5853V0.560547H333.979V28.5853H328.694Z" fill="#B4A08E"/>
<path d="M301.874 28.5853V0.560547H311.922L317.487 24.9821H318.208V0.560547H323.413V28.5853H313.364L307.799 4.16372H307.078V28.5853H301.874Z" fill="#B4A08E"/>
<path d="M285.784 29.1458C283.489 29.1458 281.514 28.7321 279.859 27.9047C278.231 27.0506 276.977 25.8495 276.096 24.3015C275.242 22.7268 274.815 20.8718 274.815 18.7366V0.560547H280.099V18.8967C280.099 20.6049 280.58 21.9527 281.541 22.9403C282.528 23.9278 283.943 24.4216 285.784 24.4216C287.626 24.4216 289.027 23.9278 289.988 22.9403C290.976 21.9527 291.469 20.6049 291.469 18.8967V0.560547H296.754V18.7366C296.754 20.8718 296.314 22.7268 295.433 24.3015C294.579 25.8495 293.324 27.0506 291.67 27.9047C290.041 28.7321 288.08 29.1458 285.784 29.1458Z" fill="#B4A08E"/>
<path d="M231.317 28.5853L227.634 0.560547H232.878L235.601 24.902H236.321L239.845 0.560547H248.973L252.496 24.902H253.216L255.939 0.560547H261.183L257.5 28.5853H248.372L244.769 3.6833H244.048L240.445 28.5853H231.317Z" fill="#B4A08E"/>
<path d="M206.907 28.5853V0.560547H224.923V5.36478H212.192V12.0507H223.802V16.8549H212.192V23.781H225.163V28.5853H206.907Z" fill="#B4A08E"/>
<path d="M180.087 28.5853V0.560547H190.136L195.7 24.9821H196.421V0.560547H201.626V28.5853H191.577L186.012 4.16372H185.291V28.5853H180.087Z" fill="#B4A08E"/>
<path d="M147.753 28.5853V0.560547H165.769V5.36478H153.038V12.0507H164.648V16.8549H153.038V23.781H166.01V28.5853H147.753Z" fill="#B4A08E"/>
<path d="M126.055 28.5853V0.560547H131.339V23.781H144.151V28.5853H126.055Z" fill="#B4A08E"/>
<path d="M109.889 29.1457C106.366 29.1457 103.563 28.1848 101.482 26.2632C99.3998 24.3148 98.3589 21.539 98.3589 17.9358V11.2099C98.3589 7.60671 99.3998 4.84427 101.482 2.92258C103.563 0.974192 106.366 0 109.889 0C113.412 0 116.215 0.974192 118.296 2.92258C120.378 4.84427 121.419 7.60671 121.419 11.2099V17.9358C121.419 21.539 120.378 24.3148 118.296 26.2632C116.215 28.1848 113.412 29.1457 109.889 29.1457ZM109.889 24.4215C111.864 24.4215 113.399 23.8477 114.493 22.7C115.587 21.5523 116.135 20.0176 116.135 18.096V11.0497C116.135 9.12805 115.587 7.59336 114.493 6.44568C113.399 5.29801 111.864 4.72417 109.889 4.72417C107.941 4.72417 106.406 5.29801 105.285 6.44568C104.191 7.59336 103.644 9.12805 103.644 11.0497V18.096C103.644 20.0176 104.191 21.5523 105.285 22.7C106.406 23.8477 107.941 24.4215 109.889 24.4215Z" fill="#B4A08E"/>
<path d="M72.7263 28.5853V0.560547H78.011V12.1307H88.4202V0.560547H93.7048V28.5853H88.4202V16.935H78.011V28.5853H72.7263Z" fill="#B4A08E"/>
<path d="M38.9992 28.5853L35.3159 0.560547H40.5605L43.2829 24.902H44.0036L47.5267 0.560547H56.6547L60.1778 24.902H60.8985L63.6209 0.560547H68.8655L65.1822 28.5853H56.0542L52.451 3.6833H51.7304L48.1272 28.5853H38.9992Z" fill="#B4A08E"/>
<path d="M0 28.5853L7.36649 0.560547H16.5746L23.9411 28.5853H18.4963L16.975 22.4198H6.96614L5.4448 28.5853H0ZM8.20724 17.5355H15.7339L12.3309 3.88348H11.6102L8.20724 17.5355Z" fill="#B4A08E"/>
</svg>
